<svg xmlns="http://www.w3.org/2000/svg" width="46" height="45" viewBox="0 0 46 45" fill="none"><g clip-path="url(#clip0_18_2311)"><path d="M23.2276 44.9864C35.6502 44.9864 45.7208 34.9158 45.7208 22.4932C45.7208 10.0705 35.6502 0 23.2276 0C10.8049 0 0.734375 10.0705 0.734375 22.4932C0.734375 34.9158 10.8049 44.9864 23.2276 44.9864Z" fill="white" fill-opacity="0.7"></path><path d="M30.3846 19.8946C30.0716 21.473 29.4185 22.8746 28.2482 24.004C28.1122 24.1401 27.9761 24.2898 27.8264 24.385C27.2141 24.7252 27.0372 25.2151 27.078 25.9091C27.146 27.1882 27.1052 28.4809 27.0916 29.76C27.0916 30.7806 26.5201 31.3657 25.4995 31.3385C25.0369 31.3249 24.7919 31.3657 24.7647 31.9508C24.7375 32.7809 24.0435 33.3524 23.2407 33.3524C22.4514 33.3524 21.7711 32.7673 21.7302 31.9372C21.703 31.4337 21.5261 31.3385 21.0771 31.3521C19.9613 31.3793 19.417 30.8078 19.4034 29.7056C19.4034 28.8211 19.4034 27.923 19.4034 27.0385C19.4034 26.4942 19.553 26.3581 20.0837 26.3445C20.1246 26.3445 20.179 26.3445 20.2198 26.3445C21.4037 26.3309 21.4037 26.3309 21.4037 25.1743C21.4037 24.3034 21.3764 23.4325 21.4173 22.5616C21.4309 22.1398 21.2812 22.0173 20.873 22.031C19.7844 22.0446 19.1584 21.6772 18.8591 20.8607C18.5869 20.1259 18.723 19.4455 19.2809 18.8876C19.8388 18.3297 20.5328 18.2072 21.254 18.4794C21.9888 18.7652 22.3834 19.3231 22.4242 20.1123C22.465 21.024 22.4514 21.024 23.2543 21.024C24.1932 21.024 24.0707 21.092 24.0843 20.2075C24.0979 19.2686 24.7103 18.5202 25.5676 18.3705C26.4929 18.2209 27.3365 18.6971 27.6631 19.5544C28.0985 20.7246 27.2685 21.9901 26.0166 22.031C25.1049 22.0582 25.1049 22.0582 25.1049 22.9835C25.1049 23.9496 25.1185 24.9157 25.0913 25.8819C25.0777 26.3037 25.2818 26.3445 25.6084 26.3445C25.9486 26.3445 26.1391 26.2357 26.071 25.8819C25.8805 24.8069 26.3296 24.1401 27.2005 23.487C29.1191 22.0582 29.8267 19.3775 29.1055 17.0098C28.4115 14.7373 26.316 13.05 23.9755 12.7642C20.7505 12.3696 17.8521 14.6421 17.2398 17.6357C16.7635 19.9626 17.7432 22.4664 19.7571 23.8952C20.1926 24.1945 20.1926 24.5892 19.7844 24.943C19.5939 25.1062 19.4578 24.9566 19.3217 24.8749C17.6344 23.7319 16.5458 22.1806 16.192 20.1803C15.4844 16.0437 18.0834 12.3696 22.2337 11.7573C26.0982 11.1858 29.3232 13.6896 30.2213 17.0778C30.2757 17.2955 30.3302 17.4997 30.3846 17.7174C30.3846 18.4386 30.3846 19.1598 30.3846 19.8946ZM22.4242 24.1265C22.4242 24.4531 22.4106 24.7933 22.4242 25.1199C22.465 26.535 22.1385 26.2901 23.6625 26.3173C23.9755 26.3309 24.0707 26.1948 24.0707 25.8955C24.0571 24.9974 24.0843 24.0857 24.0571 23.1876C24.0299 21.7996 24.3565 22.0446 22.7916 22.0037C22.4923 22.0037 22.397 22.1262 22.4106 22.3984C22.4378 22.9835 22.4242 23.555 22.4242 24.1265ZM23.2543 28.3312C24.0571 28.3312 24.8736 28.3176 25.6764 28.3312C26.0438 28.3448 26.0846 28.1543 26.0846 27.855C26.0846 27.5692 26.0846 27.3379 25.6764 27.3379C24.0571 27.3515 22.4514 27.3515 20.8321 27.3379C20.4647 27.3379 20.4239 27.5148 20.4239 27.8141C20.4239 28.0999 20.4239 28.3448 20.8321 28.3312C21.635 28.3176 22.4378 28.3312 23.2543 28.3312ZM23.2543 29.3518C22.4786 29.3518 21.703 29.3518 20.9274 29.3518C20.7505 29.3518 20.5056 29.2701 20.4511 29.5287C20.3967 29.76 20.4239 30.0049 20.628 30.1818C20.7777 30.3179 20.9818 30.3179 21.1723 30.3179C22.5739 30.3179 23.9619 30.3179 25.3634 30.3179C25.4723 30.3179 25.5948 30.3179 25.69 30.2907C26.0302 30.1955 26.0982 29.9369 26.0846 29.6239C26.071 29.2701 25.7989 29.3518 25.5948 29.3518C24.8055 29.3518 24.0299 29.3518 23.2543 29.3518ZM21.4037 20.5069C21.39 19.7585 21.0771 19.3639 20.56 19.3775C20.1518 19.3911 19.7844 19.7721 19.7844 20.1803C19.798 20.711 20.2198 20.9832 20.9682 21.0104C21.4445 21.024 21.4309 20.7518 21.4037 20.5069ZM25.5403 20.9968C26.3024 20.9968 26.7106 20.711 26.7242 20.1939C26.7378 19.7857 26.3704 19.3911 25.9486 19.3775C25.4315 19.3639 25.1185 19.7721 25.0913 20.4797C25.0777 20.8335 25.1457 21.0784 25.5403 20.9968ZM23.2543 31.3521C22.9821 31.3249 22.778 31.3521 22.7916 31.7059C22.8052 32.0325 22.9141 32.291 23.2679 32.2774C23.5809 32.2638 23.7033 32.0189 23.7033 31.7059C23.7169 31.3793 23.5264 31.3249 23.2543 31.3521Z" fill="#171717"></path></g><defs><clipPath id="clip0_18_2311"><rect width="45" height="45" fill="white" transform="translate(0.734375)"></rect></clipPath></defs></svg>