<svg xmlns="http://www.w3.org/2000/svg" width="28" height="60" viewBox="0 0 28 60" fill="none"><path d="M13.2629 0C5.94674 0.00967742 0.0144855 5.94194 0.00480805 13.2581V31.8097C-0.169385 39.1258 5.61771 45.2032 12.9338 45.3871C20.25 45.571 26.3274 39.7742 26.5113 32.4581C26.5209 32.2452 26.5209 32.0323 26.5113 31.8194V13.2581C26.5113 5.94194 20.579 0.00967742 13.2629 0ZM23.8113 31.8097C23.8113 37.6355 19.0887 42.3581 13.2629 42.3581C7.43707 42.3581 2.71449 37.6355 2.71449 31.8097V13.2581C2.71449 7.43226 7.43707 2.70968 13.2629 2.70968C19.0887 2.70968 23.8113 7.43226 23.8113 13.2581V31.8097Z" fill="#44B6A3"></path><path d="M13.263 8.96094C12.5179 8.96094 11.9082 9.57061 11.9082 10.3158V16.5384C11.8598 17.2835 12.4211 17.9319 13.1759 17.9803C13.9211 18.0287 14.5695 17.4674 14.6179 16.7126C14.6179 16.6545 14.6179 16.5964 14.6179 16.5384V10.3158C14.6082 9.57061 14.0082 8.97061 13.263 8.96094Z" fill="#F2F2F2"></path></svg>