<svg xmlns="http://www.w3.org/2000/svg" width="300" height="276" viewBox="0 0 300 276" fill="none"><g opacity="0.35"><path d="M280.805 70.2237L220.185 85.8507L224.264 90.9303C234.717 105.112 240.592 122.4 239.955 140.906C239.005 168.548 223.754 192.608 201.041 207.189C186.149 217.542 167.584 223.355 147.119 222.751H147.107C126.642 222.137 108.494 215.224 94.3447 204.008C72.6857 188.1 59.1271 163.177 60.0774 135.536C61.0276 107.884 76.2898 83.8016 99.0381 69.2207C113.918 58.889 132.483 53.0869 152.937 53.6908H152.948C156.471 53.7986 161.466 54.2947 164.826 54.8448C167.967 55.3624 171.745 56.6027 171.745 56.6027L158.905 0.662545C155.637 0.198804 152.114 0.0801721 152.114 0.0801721C66.8335 -2.46501 2.77197 55.8801 0.0834233 133.767C-2.60512 211.654 59.9847 273.375 145.265 275.92H145.276C230.545 278.454 297.249 220.594 299.926 142.718C300.841 116.317 293.216 91.2538 280.793 70.2345L280.805 70.2237Z" fill="white"></path><path d="M172.347 2.33417L174.966 13.8738C210.08 19.7299 240.5 37.805 261.208 63.0627L273.967 59.8057C250.338 29.4684 214.194 8.06083 172.347 2.34495V2.33417Z" fill="#44B6A3"></path><path d="M242.991 58.7272C225.122 41.0404 202.292 29.1772 177.307 24.2163L180.123 36.651C200.45 41.612 218.922 51.7496 233.662 66.3412C234.659 67.3226 235.586 68.3472 236.536 69.3609L249.724 65.9853C247.592 63.4941 245.367 61.0567 242.991 58.7165V58.7272Z" fill="#44B6A3"></path><path d="M182.522 47.1876L185.5 60.3018C194.794 64.1627 203.173 69.5551 210.358 76.069L223.662 72.6718C212.606 61.2401 198.526 52.3751 182.534 47.1984L182.522 47.1876Z" fill="#44B6A3"></path></g></svg>