<svg xmlns="http://www.w3.org/2000/svg" width="42" height="42" viewBox="0 0 42 42" fill="none"><path d="M21 22.0646L17.2738 25.7909C17.1343 25.9303 16.9569 26 16.7414 26C16.526 26 16.3485 25.9303 16.2091 25.7909C16.0697 25.6515 16 25.474 16 25.2586C16 25.0431 16.0697 24.8657 16.2091 24.7262L19.9354 21L16.2091 17.2738C16.0697 17.1343 16 16.9569 16 16.7414C16 16.526 16.0697 16.3485 16.2091 16.2091C16.3485 16.0697 16.526 16 16.7414 16C16.9569 16 17.1343 16.0697 17.2738 16.2091L21 19.9354L24.7262 16.2091C24.8657 16.0697 25.0431 16 25.2586 16C25.474 16 25.6515 16.0697 25.7909 16.2091C25.9303 16.3485 26 16.526 26 16.7414C26 16.9569 25.9303 17.1343 25.7909 17.2738L22.0646 21L25.7909 24.7262C25.9303 24.8657 26 25.0431 26 25.2586C26 25.474 25.9303 25.6515 25.7909 25.7909C25.6515 25.9303 25.474 26 25.2586 26C25.0431 26 24.8657 25.9303 24.7262 25.7909L21 22.0646Z" fill="#44B6A3"></path><path d="M38.5 21C38.5 29.2495 38.5 33.3742 35.9362 35.9362C33.376 38.5 29.2495 38.5 21 38.5C12.7505 38.5 8.62575 38.5 6.062 35.9362C3.5 33.376 3.5 29.2495 3.5 21C3.5 12.7505 3.5 8.62575 6.062 6.062C8.6275 3.5 12.7505 3.5 21 3.5C29.2495 3.5 33.3742 3.5 35.9362 6.062C37.6407 7.7665 38.2112 10.1622 38.4037 14" stroke="#44B6A3" stroke-width="1.5" stroke-linecap="round"></path></svg>