<svg xmlns="http://www.w3.org/2000/svg" width="46" height="45" viewBox="0 0 46 45" fill="none"><g clip-path="url(#clip0_18_2265)"><path d="M23.2276 44.9864C35.6502 44.9864 45.7208 34.9158 45.7208 22.4932C45.7208 10.0705 35.6502 0 23.2276 0C10.8049 0 0.734375 10.0705 0.734375 22.4932C0.734375 34.9158 10.8049 44.9864 23.2276 44.9864Z" fill="#44B6A3"></path><path d="M29.7842 14.9101C28.8674 13.984 27.7754 13.2497 26.5718 12.7501C25.3683 12.2505 24.0773 11.9955 22.7742 12.0001C17.3142 12.0001 12.8642 16.4501 12.8642 21.9101C12.8642 23.6601 13.3242 25.3601 14.1842 26.8601L12.7842 32.0001L18.0342 30.6201C19.4842 31.4101 21.1142 31.8301 22.7742 31.8301C28.2342 31.8301 32.6842 27.3801 32.6842 21.9201C32.6842 19.2701 31.6542 16.7801 29.7842 14.9101ZM22.7742 30.1501C21.2942 30.1501 19.8442 29.7501 18.5742 29.0001L18.2742 28.8201L15.1542 29.6401L15.9842 26.6001L15.7842 26.2901C14.9619 24.977 14.5253 23.4593 14.5242 21.9101C14.5242 17.3701 18.2242 13.6701 22.7642 13.6701C24.9642 13.6701 27.0342 14.5301 28.5842 16.0901C29.3517 16.854 29.9599 17.7627 30.3736 18.7635C30.7873 19.7642 30.9982 20.8372 30.9942 21.9201C31.0142 26.4601 27.3142 30.1501 22.7742 30.1501ZM27.2942 23.9901C27.0442 23.8701 25.8242 23.2701 25.6042 23.1801C25.3742 23.1001 25.2142 23.0601 25.0442 23.3001C24.8742 23.5501 24.4042 24.1101 24.2642 24.2701C24.1242 24.4401 23.9742 24.4601 23.7242 24.3301C23.4742 24.2101 22.6742 23.9401 21.7342 23.1001C20.9942 22.4401 20.5042 21.6301 20.3542 21.3801C20.2142 21.1301 20.3342 21.0001 20.4642 20.8701C20.5742 20.7601 20.7142 20.5801 20.8342 20.4401C20.9542 20.3001 21.0042 20.1901 21.0842 20.0301C21.1642 19.8601 21.1242 19.7201 21.0642 19.6001C21.0042 19.4801 20.5042 18.2601 20.3042 17.7601C20.1042 17.2801 19.8942 17.3401 19.7442 17.3301H19.2642C19.0942 17.3301 18.8342 17.3901 18.6042 17.6401C18.3842 17.8901 17.7442 18.4901 17.7442 19.7101C17.7442 20.9301 18.6342 22.1101 18.7542 22.2701C18.8742 22.4401 20.5042 24.9401 22.9842 26.0101C23.5742 26.2701 24.0342 26.4201 24.3942 26.5301C24.9842 26.7201 25.5242 26.6901 25.9542 26.6301C26.4342 26.5601 27.4242 26.0301 27.6242 25.4501C27.8342 24.8701 27.8342 24.3801 27.7642 24.2701C27.6942 24.1601 27.5442 24.1101 27.2942 23.9901Z" fill="#171717"></path></g><defs><clipPath id="clip0_18_2265"><rect width="45" height="45" fill="white" transform="translate(0.734375)"></rect></clipPath></defs></svg>