<svg xmlns="http://www.w3.org/2000/svg" width="46" height="45" viewBox="0 0 46 45" fill="none"><g clip-path="url(#clip0_18_2289)"><path d="M23.2276 44.9864C35.6502 44.9864 45.7208 34.9158 45.7208 22.4932C45.7208 10.0705 35.6502 0 23.2276 0C10.8049 0 0.734375 10.0705 0.734375 22.4932C0.734375 34.9158 10.8049 44.9864 23.2276 44.9864Z" fill="#44B6A3"></path><path d="M23.5389 31.6253C23.4164 31.6253 23.2939 31.6253 23.1715 31.6253C23.1034 31.5844 23.0218 31.5436 22.9537 31.5028C20.0962 29.7202 17.2522 27.924 14.3946 26.1414C14.2449 26.0462 14.1089 25.9373 14.0272 25.774C14.0272 25.6516 14.0272 25.5291 14.0272 25.4066C14.1089 25.2433 14.2313 25.1345 14.381 25.0392C14.8981 24.7127 15.4152 24.3997 15.9323 24.0731C16.0956 23.9642 16.0956 23.9506 15.9323 23.8418C15.4152 23.5152 14.8981 23.1886 14.381 22.8756C14.2313 22.7804 14.0953 22.6715 14.0136 22.5082C14.0136 22.3858 14.0136 22.2633 14.0136 22.1408C14.0953 21.9775 14.2177 21.8687 14.3674 21.7734C14.8845 21.4469 15.4016 21.1339 15.9187 20.8073C16.0819 20.6984 16.0819 20.6848 15.9187 20.576C15.4016 20.2494 14.8845 19.9228 14.3674 19.6098C14.2177 19.5146 14.0816 19.4057 14 19.2424C14 19.12 14 18.9975 14 18.875C14.0816 18.7117 14.2041 18.6029 14.3402 18.5076C17.1978 16.7251 20.0553 14.9289 22.9129 13.1327C23.1851 12.9558 23.43 12.9558 23.7158 13.1327C26.5733 14.9289 29.4445 16.7251 32.3021 18.5212C32.792 18.8206 32.7784 19.2969 32.2885 19.5962C31.7714 19.9228 31.2543 20.2494 30.7236 20.5624C30.5467 20.6712 30.5467 20.6848 30.7236 20.8073C31.1999 21.1067 31.6489 21.4332 32.1524 21.6918C32.8328 22.0456 32.8056 22.6307 32.166 22.9709C31.6898 23.2294 31.2407 23.5424 30.778 23.8282C30.5603 23.9642 30.5603 23.9642 30.778 24.1003C31.3087 24.4269 31.8258 24.7535 32.3565 25.0801C32.5878 25.2161 32.7103 25.4066 32.6695 25.6924C32.6423 25.9101 32.4926 26.0462 32.3157 26.1551C31.1727 26.8762 30.0296 27.5974 28.873 28.305C27.104 29.4072 25.3214 30.5094 23.5389 31.6253ZM23.3756 23.801C23.4164 23.7737 23.4708 23.7465 23.5252 23.7193C25.961 22.1953 28.4103 20.6848 30.8461 19.1608C31.0502 19.0247 31.0502 19.0247 30.8461 18.8886C28.4103 17.3646 25.961 15.827 23.5252 14.3029C23.3892 14.2213 23.3075 14.2349 23.1851 14.3029C22.4366 14.7792 21.6882 15.2418 20.9398 15.7181C19.2389 16.7795 17.5516 17.8409 15.8506 18.9023C15.6737 19.0111 15.6737 19.0247 15.8506 19.1336C16.1228 19.3105 16.4085 19.4738 16.6807 19.6507C18.8443 20.9978 21.0215 22.3449 23.1851 23.6921C23.2395 23.7601 23.2939 23.801 23.3756 23.801ZM30.9958 25.5835C30.9822 25.5291 30.9141 25.5019 30.8733 25.4747C30.4923 25.2297 30.0977 24.9984 29.7167 24.7535C29.5534 24.6446 29.4445 24.6446 29.2812 24.7535C27.4578 25.8965 25.6208 27.0259 23.7974 28.169C23.4844 28.3731 23.1987 28.3867 22.8857 28.169C22.8313 28.1281 22.7632 28.0873 22.6952 28.0465C20.9126 26.9443 19.1436 25.8421 17.3747 24.7263C17.2386 24.6446 17.1433 24.6446 17.0209 24.7263C16.6399 24.9712 16.2452 25.2161 15.8642 25.4475C15.6465 25.5835 15.6465 25.5835 15.8642 25.7196C18.3 27.2437 20.7357 28.7677 23.1715 30.3053C23.3075 30.387 23.4028 30.387 23.5252 30.3053C25.1037 29.312 26.6822 28.3186 28.2743 27.3253C29.1315 26.781 30.0024 26.2503 30.8597 25.706C30.9277 25.6788 30.9822 25.6516 30.9958 25.5835ZM30.9958 22.3177C30.9822 22.2633 30.9277 22.2361 30.8869 22.2089C30.5059 21.9639 30.1113 21.7326 29.7303 21.4877C29.567 21.3788 29.4445 21.3788 29.2812 21.4877C27.5259 22.5899 25.7433 23.6785 23.9879 24.7943C23.5252 25.0937 23.1442 25.1345 22.7224 24.7807C22.7224 24.7807 22.7088 24.7807 22.7088 24.7671C20.9398 23.6649 19.1709 22.5763 17.4155 21.4605C17.2658 21.3652 17.1569 21.3652 17.0073 21.4605C16.6399 21.7054 16.2588 21.9367 15.8778 22.1681C15.6601 22.3041 15.6601 22.3041 15.8778 22.4402C18.3136 23.9506 20.7493 25.4747 23.1851 26.9851C23.3211 27.0668 23.4164 27.0668 23.5389 26.9851C25.0357 26.0462 26.5189 25.1209 28.0157 24.1956C28.9546 23.6104 29.8936 23.0253 30.8461 22.4402C30.9005 22.413 30.9686 22.3858 30.9958 22.3177Z" fill="#171717"></path></g><defs><clipPath id="clip0_18_2289"><rect width="45" height="45" fill="white" transform="translate(0.734375)"></rect></clipPath></defs></svg>