<svg xmlns="http://www.w3.org/2000/svg" width="46" height="45" viewBox="0 0 46 45" fill="none"><g clip-path="url(#clip0_18_2243)"><path d="M23.2276 44.9864C35.6502 44.9864 45.7208 34.9158 45.7208 22.4932C45.7208 10.0705 35.6502 0 23.2276 0C10.8049 0 0.734375 10.0705 0.734375 22.4932C0.734375 34.9158 10.8049 44.9864 23.2276 44.9864Z" fill="#44B6A3"></path><path d="M15.7344 16V14H15.8344C24.6344 14 31.7344 21.1 31.7344 29.9V30H29.7344V29.9C29.7344 22.2 23.5344 16 15.7344 16ZM15.7344 20V18C18.917 18 21.9692 19.2643 24.2197 21.5147C26.4701 23.7652 27.7344 26.8174 27.7344 30H25.7344C25.7344 28.6868 25.4757 27.3864 24.9732 26.1732C24.4706 24.9599 23.734 23.8575 22.8054 22.9289C21.8769 22.0003 20.7745 21.2638 19.5612 20.7612C18.348 20.2587 17.0476 20 15.7344 20ZM15.7344 24V22C17.8561 22 19.8909 22.8429 21.3912 24.3431C22.8915 25.8434 23.7344 27.8783 23.7344 30H21.7344C21.7344 28.4087 21.1022 26.8826 19.977 25.7574C18.8518 24.6321 17.3257 24 15.7344 24ZM15.7344 26C16.7952 26 17.8127 26.4214 18.5628 27.1716C19.3129 27.9217 19.7344 28.9391 19.7344 30H15.7344V26Z" fill="#171717"></path></g><defs><clipPath id="clip0_18_2243"><rect width="45" height="45" fill="white" transform="translate(0.734375)"></rect></clipPath></defs></svg>