<svg xmlns="http://www.w3.org/2000/svg" width="160" height="63" viewBox="0 0 160 63" fill="none"><path d="M1.25555 35.1329C6.34141 38.5592 12.7465 40.0732 16.5112 40.0732C20.2759 40.0732 23.1824 38.5573 23.1824 35.0002C23.1824 30.587 18.6906 30.1907 12.5497 28.215C5.94411 26.0411 0 22.813 0 14.5138C0 5.6202 6.73678 0.0854811 16.7754 0.0854811C21.464 0.0854811 27.2094 1.27053 31.3715 3.51174V13.854C26.2856 10.6913 20.409 9.24268 16.7098 9.24268C13.0107 9.24268 10.5671 10.5605 10.5671 13.7232C10.5671 17.9401 14.9914 18.2691 20.7388 20.1794C27.9385 22.5514 33.7495 25.9103 33.7495 34.3423C33.7495 43.6303 26.6829 49.2304 16.38 49.2304C11.624 49.2304 5.74738 48.0454 1.25555 45.7387V35.1329Z" fill="white"></path><path d="M38.9646 62.9989L47.4834 44.9481L34.2741 16.0933H44.8412L48.2086 24.1308C49.6609 27.6225 51.0476 31.0487 52.3687 34.4077H52.4998C53.9521 30.8506 55.4063 27.4243 56.9242 23.9327L60.3591 16.0933H70.3322L49.198 62.997H38.9607L38.9646 62.9989Z" fill="white"></path><path d="M126.506 35.1329C131.592 38.5592 137.997 40.0732 141.762 40.0732C145.526 40.0732 148.433 38.5573 148.433 35.0002C148.433 30.587 143.941 30.1907 137.8 28.215C131.197 26.0411 125.252 22.813 125.252 14.5119C125.252 5.61828 131.989 0.0854811 142.028 0.0854811C146.716 0.0854811 152.462 1.27053 156.624 3.51174V13.854C151.538 10.6913 145.661 9.24268 141.962 9.24268C138.263 9.24268 135.82 10.5605 135.82 13.7232C135.82 17.9401 140.244 18.2691 145.991 20.1794C153.191 22.5514 159.002 25.9103 159.002 34.3423C159.002 43.6303 151.935 49.2304 141.632 49.2304C136.876 49.2304 131 48.0454 126.508 45.7387V35.1329H126.506Z" fill="white"></path><path d="M118.95 12.5266L108.861 15.3141L109.54 16.2202C111.279 18.75 112.257 21.8338 112.151 25.135C111.993 30.0657 109.455 34.3576 105.675 36.9586C103.196 38.8054 100.107 39.8424 96.7007 39.7346H96.6988C93.2928 39.625 90.2725 38.3918 87.9176 36.3911C84.313 33.5535 82.0564 29.1076 82.2146 24.177C82.3727 19.2444 84.9128 14.9486 88.6987 12.3477C91.1751 10.5047 94.2648 9.46969 97.6689 9.57742H97.6708C98.2571 9.59666 99.0884 9.68515 99.6477 9.78326C100.17 9.87561 100.799 10.0968 100.799 10.0968L98.6621 0.118185C98.1182 0.0354628 97.5319 0.0143012 97.5319 0.0143012C83.339 -0.439711 72.6774 9.96795 72.2299 23.8615C71.7825 37.755 82.1992 48.7648 96.3921 49.2189H96.394C110.585 49.6709 121.686 39.3499 122.132 25.4582C122.284 20.7488 121.015 16.2779 118.948 12.5285L118.95 12.5266Z" fill="white"></path><path d="M100.899 0.416372L101.335 2.47482C107.179 3.51943 112.242 6.74369 115.688 11.2492L117.812 10.6682C113.879 5.25661 107.864 1.4379 100.899 0.418295V0.416372Z" fill="#44B6A3"></path><path d="M112.656 10.4758C109.682 7.32082 105.883 5.20466 101.725 4.31972L102.193 6.53785C105.576 7.42278 108.651 9.23114 111.104 11.834C111.27 12.0091 111.424 12.1918 111.582 12.3727L113.777 11.7705C113.422 11.3261 113.052 10.8914 112.656 10.4739V10.4758Z" fill="#44B6A3"></path><path d="M102.593 8.41738L103.088 10.7567C104.635 11.4454 106.03 12.4073 107.225 13.5693L109.439 12.9633C107.599 10.9241 105.256 9.34272 102.595 8.4193L102.593 8.41738Z" fill="#44B6A3"></path></svg>