<svg xmlns="http://www.w3.org/2000/svg" width="42" height="42" viewBox="0 0 42 42" fill="none"><path d="M24.6247 20.5938L20.1247 17.5938C20.0399 17.5372 19.9414 17.5047 19.8396 17.4998C19.7378 17.4949 19.6366 17.5178 19.5468 17.5659C19.457 17.614 19.3819 17.6857 19.3297 17.7731C19.2774 17.8606 19.2498 17.9606 19.25 18.0625V24.0625C19.2498 24.1644 19.2774 24.2644 19.3297 24.3519C19.3819 24.4394 19.457 24.511 19.5468 24.5591C19.6366 24.6073 19.7378 24.6301 19.8396 24.6252C19.9414 24.6203 20.0399 24.5878 20.1247 24.5313L24.6247 21.5313C24.702 21.48 24.7655 21.4103 24.8094 21.3285C24.8533 21.2467 24.8763 21.1553 24.8763 21.0625C24.8763 20.9697 24.8533 20.8783 24.8094 20.7965C24.7655 20.7147 24.702 20.6451 24.6247 20.5938ZM20.375 23.0116V19.1135L23.2981 21.0625L20.375 23.0116ZM31.1 15.625C31.0186 15.3088 30.8633 15.0164 30.6469 14.772C30.4304 14.5275 30.159 14.3379 29.855 14.2188C26.6562 12.9803 21.5253 13 21.3125 13C21.0997 13 15.9688 12.9803 12.7663 14.2188C12.4629 14.3384 12.1923 14.5282 11.9765 14.7726C11.7608 15.0171 11.606 15.3092 11.525 15.625C11.2859 16.5522 11 18.25 11 21.0625C11 23.875 11.2859 25.5728 11.525 26.5C11.6064 26.8162 11.7617 27.1086 11.9781 27.3531C12.1946 27.5976 12.466 27.7872 12.77 27.9063C15.9688 29.1447 21.0988 29.125 21.3125 29.125H21.3791C22.0269 29.125 26.8166 29.0838 29.8588 27.9063C30.1628 27.7872 30.4342 27.5976 30.6506 27.3531C30.8671 27.1086 31.0224 26.8162 31.1038 26.5C31.3428 25.5747 31.6287 23.8816 31.6287 21.0625C31.6287 18.2435 31.3437 16.5522 31.1 15.625ZM30.0106 26.2188C29.9745 26.3629 29.9047 26.4963 29.8069 26.6081C29.7091 26.72 29.5861 26.8069 29.4481 26.8619C26.4481 28.0178 21.3669 28 21.3125 28C21.2581 28 16.1834 28.0188 13.1797 26.8591C13.0417 26.8041 12.9187 26.7171 12.8209 26.6053C12.7231 26.4935 12.6533 26.3601 12.6172 26.216C12.3912 25.3544 12.125 23.7606 12.125 21.0625C12.125 18.3644 12.3913 16.7706 12.6144 15.9063C12.6505 15.7622 12.7203 15.6287 12.8181 15.5169C12.9159 15.4051 13.0389 15.3181 13.1769 15.2631C16.0681 14.1494 20.8934 14.125 21.29 14.125H21.3125C21.3631 14.125 26.4416 14.1063 29.4453 15.266C29.5833 15.3209 29.7063 15.4079 29.8041 15.5197C29.9019 15.6315 29.9717 15.765 30.0078 15.9091C30.2309 16.7706 30.4972 18.3644 30.4972 21.0653C30.4972 23.7663 30.2337 25.3544 30.0106 26.2188Z" fill="#44B6A3"></path><path d="M38.5 21C38.5 29.2495 38.5 33.3742 35.9362 35.9362C33.376 38.5 29.2495 38.5 21 38.5C12.7505 38.5 8.62575 38.5 6.062 35.9362C3.5 33.376 3.5 29.2495 3.5 21C3.5 12.7505 3.5 8.62575 6.062 6.062C8.6275 3.5 12.7505 3.5 21 3.5C29.2495 3.5 33.3742 3.5 35.9362 6.062C37.6407 7.7665 38.2112 10.1622 38.4037 14" stroke="#44B6A3" stroke-width="1.5" stroke-linecap="round"></path></svg>