<svg xmlns="http://www.w3.org/2000/svg" width="45" height="45" viewBox="0 0 45 45" fill="none"><path d="M22.4932 44.9864C34.9158 44.9864 44.9864 34.9158 44.9864 22.4932C44.9864 10.0705 34.9158 0 22.4932 0C10.0705 0 0 10.0705 0 22.4932C0 34.9158 10.0705 44.9864 22.4932 44.9864Z" fill="#44B6A3"></path><path d="M23.0001 12.8296C24.7845 12.8273 26.4997 13.5197 27.7823 14.7602C29.065 16.0008 29.8142 17.6919 29.8714 19.4754L29.8751 19.7046V23.4602L31.1401 26.3532C31.2164 26.5275 31.2481 26.7181 31.2323 26.9077C31.2164 27.0973 31.1536 27.28 31.0494 27.4393C30.9452 27.5985 30.803 27.7293 30.6355 27.8197C30.4681 27.9102 30.2808 27.9575 30.0905 27.9573L25.7501 27.9601C25.751 28.676 25.4727 29.3641 24.9744 29.878C24.476 30.392 23.7969 30.6914 23.0812 30.7125C22.3656 30.7336 21.67 30.4748 21.1422 29.9912C20.6144 29.5075 20.296 28.8371 20.2547 28.1223L20.2501 27.9573H15.9188C15.7289 27.9571 15.542 27.9097 15.3749 27.8194C15.2079 27.7291 15.0658 27.5987 14.9616 27.44C14.8573 27.2812 14.7942 27.099 14.7777 26.9098C14.7613 26.7206 14.7921 26.5303 14.8674 26.3559L16.1251 23.4611V19.7046C16.1251 15.8958 19.1978 12.8296 23.0001 12.8296ZM24.3751 27.9583L21.6251 27.9601C21.625 28.3133 21.7609 28.653 22.0045 28.9087C22.2481 29.1644 22.5808 29.3166 22.9336 29.3337C23.2863 29.3508 23.6322 29.2315 23.8994 29.0005C24.1665 28.7695 24.3346 28.4446 24.3687 28.093L24.3751 27.9583ZM23.0001 14.2046C19.9568 14.2046 17.5001 16.6558 17.5001 19.7046V23.7471L16.2681 26.5833H29.7403L28.5001 23.748V19.7165L28.4973 19.5103C28.4497 18.0851 27.8493 16.7344 26.8233 15.7441C25.7972 14.7538 24.4261 14.2017 23.0001 14.2046Z" fill="#171717"></path></svg>