<svg xmlns="http://www.w3.org/2000/svg" width="45" height="45" viewBox="0 0 45 45" fill="none"><path d="M22.4932 44.9864C34.9158 44.9864 44.9864 34.9158 44.9864 22.4932C44.9864 10.0705 34.9158 0 22.4932 0C10.0705 0 0 10.0705 0 22.4932C0 34.9158 10.0705 44.9864 22.4932 44.9864Z" fill="#44B6A3"></path><path d="M31.6703 30.651H14.3315C14.1306 30.6504 13.9332 30.5973 13.759 30.4971C13.5848 30.3969 13.4398 30.253 13.3382 30.0796C13.2363 29.9058 13.1822 29.7081 13.1816 29.5066C13.1811 29.3052 13.234 29.1072 13.3349 28.9328L22.0095 13.9217C22.1096 13.7475 22.2539 13.6028 22.4278 13.5022C22.6018 13.4017 22.7992 13.3489 23.0001 13.3491C23.4087 13.3491 23.7893 13.5686 23.9928 13.9222L32.6438 28.8954C32.7522 29.0692 32.8122 29.2688 32.8175 29.4735C32.8228 29.6783 32.7732 29.8807 32.6739 30.0598C32.5745 30.2389 32.4291 30.3882 32.2526 30.4922C32.0762 30.5961 31.8751 30.651 31.6703 30.651ZM22.9709 14.4717H22.9616L14.2886 29.4806L14.3315 29.5516H31.6703C31.6945 29.5516 31.7181 29.5279 31.7181 29.5043C31.7143 29.4982 31.695 29.4515 31.6912 29.4454L23.0397 14.4717H22.9709Z" fill="#171717"></path><path d="M22.4668 19.5517V24.3373C22.4736 24.4983 22.5423 24.6505 22.6586 24.7621C22.7749 24.8736 22.9299 24.9359 23.091 24.9359C23.2522 24.9359 23.4072 24.8736 23.5235 24.7621C23.6398 24.6505 23.7085 24.4983 23.7153 24.3373V19.5517C23.7152 19.386 23.6494 19.2271 23.5324 19.1097C23.4155 18.9923 23.2568 18.926 23.091 18.9253C22.7484 18.9253 22.4668 19.2074 22.4668 19.5517ZM23.0916 25.7942C22.7484 25.7942 22.4673 26.0725 22.4673 26.4168V26.8354C22.4685 27.0004 22.5347 27.1584 22.6516 27.2749C22.7684 27.3915 22.9265 27.4573 23.0916 27.458C23.4359 27.458 23.7158 27.1758 23.7158 26.8354V26.4168C23.7158 26.0725 23.4353 25.7942 23.0916 25.7942Z" fill="#171717"></path></svg>