<svg xmlns="http://www.w3.org/2000/svg" width="45" height="45" viewBox="0 0 45 45" fill="none"><path d="M22.4932 44.9864C34.9158 44.9864 44.9864 34.9158 44.9864 22.4932C44.9864 10.0705 34.9158 0 22.4932 0C10.0705 0 0 10.0705 0 22.4932C0 34.9158 10.0705 44.9864 22.4932 44.9864Z" fill="#44B6A3"></path><path d="M20.9375 22.8662V15.125C20.9375 14.3957 20.6478 13.6962 20.132 13.1805C19.6163 12.6647 18.9168 12.375 18.1875 12.375C17.4582 12.375 16.7587 12.6647 16.243 13.1805C15.7272 13.6962 15.4375 14.3957 15.4375 15.125V22.8662C14.5967 23.4517 13.9647 24.2902 13.6334 25.2598C13.3022 26.2293 13.289 27.2792 13.5958 28.2568C13.9027 29.2343 14.5134 30.0884 15.3393 30.6948C16.1651 31.3012 17.1629 31.6281 18.1875 31.6281C19.2121 31.6281 20.2099 31.3012 21.0357 30.6948C21.8616 30.0884 22.4723 29.2343 22.7792 28.2568C23.086 27.2792 23.0728 26.2293 22.7416 25.2598C22.4103 24.2902 21.7783 23.4517 20.9375 22.8662ZM18.1875 13.75C18.5522 13.75 18.9019 13.8949 19.1598 14.1527C19.4176 14.4106 19.5625 14.7603 19.5625 15.125V19.9375H16.8125V15.125C16.8125 14.7603 16.9574 14.4106 17.2152 14.1527C17.4731 13.8949 17.8228 13.75 18.1875 13.75ZM18.1875 30.25C17.4308 30.25 16.6953 30.0003 16.095 29.5396C15.4947 29.079 15.0631 28.4331 14.8673 27.7022C14.6714 26.9713 14.7222 26.1962 15.0118 25.4971C15.3013 24.798 15.8135 24.214 16.4688 23.8356L16.8125 23.6431V21.3125H19.5625V23.6431L19.9062 23.8356C20.5615 24.214 21.0737 24.798 21.3632 25.4971C21.6528 26.1962 21.7036 26.9713 21.5077 27.7022C21.3119 28.4331 20.8803 29.079 20.28 29.5396C19.6797 30.0003 18.9442 30.25 18.1875 30.25ZM25.75 13.75H32.625V15.125H25.75V13.75ZM25.75 17.875H30.5625V19.25H25.75V17.875ZM25.75 22H32.625V23.375H25.75V22ZM25.75 26.125H30.5625V27.5H25.75V26.125Z" fill="#171717"></path></svg>