<svg xmlns="http://www.w3.org/2000/svg" width="45" height="45" viewBox="0 0 45 45" fill="none"><path d="M22.4932 44.9864C34.9158 44.9864 44.9864 34.9158 44.9864 22.4932C44.9864 10.0705 34.9158 0 22.4932 0C10.0705 0 0 10.0705 0 22.4932C0 34.9158 10.0705 44.9864 22.4932 44.9864Z" fill="#44B6A3"></path><g clip-path="url(#clip0_308_585)"><path d="M28.6156 31.7779C28.3455 31.7777 28.0816 31.6968 27.8578 31.5457L23.2989 28.4902C23.2764 28.4747 23.2498 28.4664 23.2225 28.4664C23.1952 28.4664 23.1686 28.4747 23.1461 28.4902L18.5872 31.5457C18.3583 31.6986 18.0883 31.7782 17.813 31.774C17.5378 31.7697 17.2704 31.6819 17.0462 31.5221C16.8221 31.3623 16.6519 31.1381 16.5582 30.8792C16.4645 30.6204 16.4518 30.3392 16.5217 30.0729L18.0189 24.7929C18.026 24.7664 18.0251 24.7383 18.0164 24.7123C18.0077 24.6862 17.9916 24.6633 17.97 24.6463L13.6556 21.2546C13.4284 21.0854 13.2599 20.8494 13.1737 20.5796C13.0875 20.3098 13.0879 20.0198 13.1749 19.7502C13.2618 19.4807 13.4309 19.2451 13.6585 19.0765C13.8861 18.9079 14.1607 18.8148 14.4439 18.8102L19.9439 18.6024C19.9709 18.6005 19.9969 18.5909 20.0185 18.5746C20.0402 18.5583 20.0567 18.5362 20.0661 18.5107L21.9606 13.359C22.056 13.0979 22.2295 12.8724 22.4574 12.713C22.6853 12.5537 22.9566 12.4683 23.2347 12.4683C23.5128 12.4683 23.7842 12.5537 24.0121 12.713C24.24 12.8724 24.4134 13.0979 24.5089 13.359L26.4033 18.5107C26.4127 18.5362 26.4292 18.5583 26.4509 18.5746C26.4726 18.5909 26.4985 18.6005 26.5256 18.6024L32.0256 18.8102C32.3087 18.8148 32.5834 18.9079 32.811 19.0765C33.0385 19.2451 33.2077 19.4807 33.2946 19.7502C33.3815 20.0198 33.3819 20.3098 33.2957 20.5796C33.2095 20.8494 33.041 21.0854 32.8139 21.2546L28.4994 24.6463C28.4772 24.6627 28.4606 24.6856 28.4518 24.7119C28.4431 24.7381 28.4426 24.7664 28.4506 24.7929L29.9478 30.0729C30.0003 30.2755 30.0055 30.4874 29.963 30.6922C29.9205 30.8971 29.8314 31.0894 29.7025 31.2543C29.5737 31.4192 29.4086 31.5521 29.2202 31.643C29.0317 31.7338 28.8248 31.78 28.6156 31.7779ZM23.2256 27.2435C23.4962 27.2518 23.7581 27.3412 23.9772 27.5002L28.5361 30.5557C28.5592 30.5733 28.5874 30.5829 28.6164 30.5831C28.6454 30.5833 28.6737 30.5742 28.6971 30.557C28.7205 30.5398 28.7377 30.5155 28.7461 30.4877C28.7545 30.46 28.7538 30.4302 28.7439 30.4029L27.2467 25.1229C27.173 24.8639 27.1784 24.5888 27.2623 24.3329C27.3461 24.077 27.5046 23.852 27.7172 23.6868L32.0317 20.2952C32.0552 20.2786 32.0728 20.255 32.0819 20.2277C32.091 20.2004 32.0911 20.1709 32.0823 20.1436C32.0734 20.1162 32.0559 20.0925 32.0325 20.0757C32.0091 20.059 31.981 20.0503 31.9522 20.0507L26.4522 19.8429C26.1829 19.8324 25.9228 19.742 25.7052 19.5831C25.4875 19.4242 25.3221 19.204 25.23 18.9507L23.3356 13.799C23.327 13.7717 23.31 13.7478 23.2869 13.7308C23.2638 13.7138 23.2359 13.7047 23.2072 13.7047C23.1786 13.7047 23.1507 13.7138 23.1276 13.7308C23.1045 13.7478 23.0874 13.7717 23.0789 13.799L21.2028 18.9446C21.1107 19.1979 20.9453 19.418 20.7276 19.577C20.5099 19.7359 20.2499 19.8263 19.9806 19.8368L14.4806 20.0446C14.4518 20.0441 14.4236 20.0529 14.4002 20.0696C14.3768 20.0863 14.3594 20.1101 14.3505 20.1375C14.3416 20.1648 14.3418 20.1943 14.3509 20.2216C14.36 20.2489 14.3776 20.2725 14.4011 20.289L18.7217 23.6868C18.9337 23.8525 19.0916 24.0776 19.1754 24.3333C19.2592 24.589 19.2651 24.8639 19.1922 25.1229L17.7011 30.4029C17.6922 30.4294 17.6922 30.458 17.701 30.4845C17.7098 30.5109 17.727 30.5338 17.75 30.5496C17.7721 30.5685 17.8003 30.5789 17.8294 30.5789C17.8586 30.5789 17.8867 30.5685 17.9089 30.5496L22.4678 27.494C22.6906 27.3463 22.9521 27.2676 23.2194 27.2679L23.2256 27.2435Z" fill="#171717"></path></g><defs><clipPath id="clip0_308_585"><rect width="22" height="22" fill="white" transform="translate(12 11)"></rect></clipPath></defs></svg>