<svg xmlns="http://www.w3.org/2000/svg" width="45" height="45" viewBox="0 0 45 45" fill="none"><path d="M22.4932 44.9864C34.9158 44.9864 44.9864 34.9158 44.9864 22.4932C44.9864 10.0705 34.9158 0 22.4932 0C10.0705 0 0 10.0705 0 22.4932C0 34.9158 10.0705 44.9864 22.4932 44.9864Z" fill="#44B6A3"></path><path d="M28.5 18.3335L29.3699 18.6232C30.2774 18.9257 30.7312 19.0769 30.9906 19.4372C31.25 19.7974 31.25 20.2759 31.25 21.232V26.4267C31.25 27.6092 31.25 28.2014 30.9383 28.5818C30.8329 28.7102 30.7046 28.8202 30.5598 28.9027C30.1335 29.1474 29.5496 29.0493 28.3827 28.8559C27.2313 28.6634 26.6557 28.5681 26.0846 28.6157C25.8842 28.632 25.6851 28.6617 25.4888 28.7047C24.9296 28.8275 24.4025 29.0906 23.3492 29.6177C21.9742 30.3052 21.2868 30.6489 20.5553 30.7543C20.3353 30.7864 20.1125 30.802 19.8898 30.802C19.15 30.8002 18.4277 30.5591 16.9821 30.0778L16.6301 29.9605C15.7226 29.658 15.2688 29.5067 15.0094 29.1465C14.75 28.7862 14.75 28.3068 14.75 27.3517V22.8325C14.75 21.3117 14.75 20.5518 15.1973 20.143C15.2757 20.0712 15.3622 20.0088 15.4549 19.9569C15.9848 19.6617 16.7062 19.9019 18.1481 20.3832" stroke="#171717" stroke-width="1.375"></path><path d="M17.5 18.0585C17.5 15.1728 19.9622 12.8335 23 12.8335C26.0378 12.8335 28.5 15.1728 28.5 18.0585C28.5 20.9222 26.7446 24.2634 24.0056 25.4578C23.6882 25.5956 23.346 25.6667 23 25.6667C22.654 25.6667 22.3118 25.5956 21.9944 25.4578C19.2554 24.2643 17.5 20.9222 17.5 18.0585Z" stroke="#171717" stroke-width="1.375"></path><path d="M22.9993 20.1667C24.0119 20.1667 24.8327 19.3459 24.8327 18.3333C24.8327 17.3208 24.0119 16.5 22.9993 16.5C21.9868 16.5 21.166 17.3208 21.166 18.3333C21.166 19.3459 21.9868 20.1667 22.9993 20.1667Z" stroke="#171717" stroke-width="1.375"></path></svg>