<svg xmlns="http://www.w3.org/2000/svg" width="45" height="45" viewBox="0 0 45 45" fill="none"><path d="M22.4932 44.9864C34.9158 44.9864 44.9864 34.9158 44.9864 22.4932C44.9864 10.0705 34.9158 0 22.4932 0C10.0705 0 0 10.0705 0 22.4932C0 34.9158 10.0705 44.9864 22.4932 44.9864Z" fill="#44B6A3"></path><g clip-path="url(#clip0_308_573)"><path d="M32.6244 15.812C32.6244 16.2634 32.3755 16.7103 31.8918 17.1273C31.4082 17.5443 30.6993 17.9232 29.8057 18.2424C28.912 18.5616 27.8511 18.8147 26.6835 18.9875C25.5159 19.1602 24.2645 19.2491 23.0007 19.2491C20.4483 19.2491 18.0005 18.887 16.1957 18.2424C14.3909 17.5978 13.377 16.7236 13.377 15.812C13.377 15.3607 13.6259 14.9137 14.1095 14.4967C14.5932 14.0797 15.302 13.7008 16.1957 13.3817C17.0893 13.0625 18.1502 12.8094 19.3178 12.6366C20.4854 12.4639 21.7369 12.375 23.0007 12.375C24.2645 12.375 25.5159 12.4639 26.6835 12.6366C27.8511 12.8094 28.912 13.0625 29.8057 13.3817C30.6993 13.7008 31.4082 14.0797 31.8918 14.4967C32.3755 14.9137 32.6244 15.3607 32.6244 15.812Z" stroke="#171717" stroke-width="1.375" stroke-linecap="round" stroke-linejoin="round"></path><path d="M32.6244 28.1855C32.6244 28.7889 32.1797 29.3816 31.3351 29.9041C30.4904 30.4266 29.2755 30.8604 27.8125 31.1621C26.3495 31.4638 24.69 31.6226 23.0007 31.6226C21.3114 31.6226 19.6518 31.4638 18.1888 31.1621C16.7258 30.8604 15.5109 30.4266 14.6663 29.9041C13.8216 29.3816 13.377 28.7889 13.377 28.1855" stroke="#171717" stroke-width="1.375" stroke-linecap="round" stroke-linejoin="round"></path><path d="M32.6244 24.061C32.6244 24.6644 32.1797 25.2571 31.3351 25.7796C30.4904 26.3021 29.2755 26.7359 27.8125 27.0376C26.3495 27.3393 24.69 27.4981 23.0007 27.4981C21.3114 27.4981 19.6518 27.3393 18.1888 27.0376C16.7258 26.7359 15.5109 26.3021 14.6663 25.7796C13.8216 25.2571 13.377 24.6644 13.377 24.061" stroke="#171717" stroke-width="1.375" stroke-linecap="round" stroke-linejoin="round"></path><path d="M32.6244 19.9365C32.6244 20.5399 32.1797 21.1325 31.3351 21.655C30.4904 22.1775 29.2755 22.6114 27.8125 22.9131C26.3495 23.2148 24.69 23.3736 23.0007 23.3736C21.3114 23.3736 19.6518 23.2148 18.1888 22.9131C16.7258 22.6114 15.5109 22.1775 14.6663 21.655C13.8216 21.1325 13.377 20.5399 13.377 19.9365" stroke="#171717" stroke-width="1.375" stroke-linecap="round" stroke-linejoin="round"></path><path d="M13.377 15.812V28.1853" stroke="#171717" stroke-width="1.375" stroke-linecap="round" stroke-linejoin="round"></path><path d="M32.625 15.812V28.1854" stroke="#171717" stroke-width="1.375" stroke-linecap="round" stroke-linejoin="round"></path></g><defs><clipPath id="clip0_308_573"><rect width="22" height="22" fill="white" transform="translate(12 11)"></rect></clipPath></defs></svg>