<svg xmlns="http://www.w3.org/2000/svg" width="45" height="45" viewBox="0 0 45 45" fill="none"><path d="M22.4932 44.9864C34.9158 44.9864 44.9864 34.9158 44.9864 22.4932C44.9864 10.0705 34.9158 0 22.4932 0C10.0705 0 0 10.0705 0 22.4932C0 34.9158 10.0705 44.9864 22.4932 44.9864Z" fill="#44B6A3"></path><path d="M22.0547 14.75H15.4375C15.0572 14.75 14.75 15.0572 14.75 15.4375V22.0547C14.75 22.1492 14.8273 22.2266 14.9219 22.2266H22.0547C22.1492 22.2266 22.2266 22.1492 22.2266 22.0547V14.9219C22.2266 14.8273 22.1492 14.75 22.0547 14.75ZM20.8516 20.8516H16.125V16.125H20.8516V20.8516ZM17.8867 19.2617H19.0898C19.1844 19.2617 19.2617 19.1844 19.2617 19.0898V17.8867C19.2617 17.7922 19.1844 17.7148 19.0898 17.7148H17.8867C17.7922 17.7148 17.7148 17.7922 17.7148 17.8867V19.0898C17.7148 19.1844 17.7922 19.2617 17.8867 19.2617ZM22.0547 23.7734H14.9219C14.8273 23.7734 14.75 23.8508 14.75 23.9453V30.5625C14.75 30.9428 15.0572 31.25 15.4375 31.25H22.0547C22.1492 31.25 22.2266 31.1727 22.2266 31.0781V23.9453C22.2266 23.8508 22.1492 23.7734 22.0547 23.7734ZM20.8516 29.875H16.125V25.1484H20.8516V29.875ZM17.8867 28.2852H19.0898C19.1844 28.2852 19.2617 28.2078 19.2617 28.1133V26.9102C19.2617 26.8156 19.1844 26.7383 19.0898 26.7383H17.8867C17.7922 26.7383 17.7148 26.8156 17.7148 26.9102V28.1133C17.7148 28.2078 17.7922 28.2852 17.8867 28.2852ZM30.5625 14.75H23.9453C23.8508 14.75 23.7734 14.8273 23.7734 14.9219V22.0547C23.7734 22.1492 23.8508 22.2266 23.9453 22.2266H31.0781C31.1727 22.2266 31.25 22.1492 31.25 22.0547V15.4375C31.25 15.0572 30.9428 14.75 30.5625 14.75ZM29.875 20.8516H25.1484V16.125H29.875V20.8516ZM26.9102 19.2617H28.1133C28.2078 19.2617 28.2852 19.1844 28.2852 19.0898V17.8867C28.2852 17.7922 28.2078 17.7148 28.1133 17.7148H26.9102C26.8156 17.7148 26.7383 17.7922 26.7383 17.8867V19.0898C26.7383 19.1844 26.8156 19.2617 26.9102 19.2617ZM31.0781 23.7734H30.0469C29.9523 23.7734 29.875 23.8508 29.875 23.9453V26.8242H28.1992V23.9453C28.1992 23.8508 28.1219 23.7734 28.0273 23.7734H23.9453C23.8508 23.7734 23.7734 23.8508 23.7734 23.9453V31.0781C23.7734 31.1727 23.8508 31.25 23.9453 31.25H24.9766C25.0711 31.25 25.1484 31.1727 25.1484 31.0781V25.8359H26.8242V28.0273C26.8242 28.1219 26.9016 28.1992 26.9961 28.1992H31.0781C31.1727 28.1992 31.25 28.1219 31.25 28.0273V23.9453C31.25 23.8508 31.1727 23.7734 31.0781 23.7734ZM28.0273 29.875H26.9961C26.9016 29.875 26.8242 29.9523 26.8242 30.0469V31.0781C26.8242 31.1727 26.9016 31.25 26.9961 31.25H28.0273C28.1219 31.25 28.1992 31.1727 28.1992 31.0781V30.0469C28.1992 29.9523 28.1219 29.875 28.0273 29.875ZM31.0781 29.875H30.0469C29.9523 29.875 29.875 29.9523 29.875 30.0469V31.0781C29.875 31.1727 29.9523 31.25 30.0469 31.25H31.0781C31.1727 31.25 31.25 31.1727 31.25 31.0781V30.0469C31.25 29.9523 31.1727 29.875 31.0781 29.875Z" fill="#171717"></path></svg>