<svg xmlns="http://www.w3.org/2000/svg" width="45" height="45" viewBox="0 0 45 45" fill="none"><path d="M22.4932 44.9864C34.9158 44.9864 44.9864 34.9158 44.9864 22.4932C44.9864 10.0705 34.9158 0 22.4932 0C10.0705 0 0 10.0705 0 22.4932C0 34.9158 10.0705 44.9864 22.4932 44.9864Z" fill="white" fill-opacity="0.7"></path><path d="M22.5491 30.7306C20.7529 30.7306 18.9567 30.7442 17.1605 30.717C16.7795 30.717 16.6298 30.8122 16.6434 31.2204C16.6706 31.9961 16.5754 32.0641 15.8133 32.0777C15.0922 32.0777 14.3846 32.0777 13.6634 32.0777C13.1463 32.0777 13.0102 31.9416 13.0102 31.4518C12.9966 30.6625 12.9966 29.8733 13.0102 29.0705C13.0102 28.567 13.1463 28.4309 13.6634 28.4309C14.3982 28.4309 14.3573 28.4989 14.3573 27.7233C14.3573 24.2262 14.3437 20.7291 14.371 17.2319C14.371 16.7829 14.2621 16.6196 13.7994 16.6468C13.1191 16.6876 13.0238 16.5516 13.0102 15.8848C13.0102 15.15 13.0102 14.4152 13.0102 13.6804C13.0102 13.1361 13.1327 13.0136 13.6634 13C14.439 13 15.2146 13 15.9902 13C16.5209 13 16.6434 13.1361 16.657 13.6668C16.6706 14.3471 16.6706 14.3471 17.3374 14.3471C20.8481 14.3471 24.3589 14.3471 27.8832 14.3607C28.305 14.3607 28.4683 14.2519 28.4411 13.8165C28.4139 13.0953 28.5228 13.0136 29.2303 13.0136C29.9651 13.0136 30.7 13.0136 31.4348 13.0136C31.9518 13.0136 32.0879 13.1497 32.0879 13.6396C32.1015 14.4288 32.1015 15.218 32.0879 16.0209C32.0879 16.5243 31.9518 16.6604 31.4484 16.6604C30.7 16.6604 30.7544 16.606 30.7544 17.368C30.7544 20.8651 30.768 24.3623 30.7408 27.8594C30.7408 28.3084 30.8496 28.4717 31.3123 28.4445C31.9927 28.4037 32.0879 28.5398 32.1015 29.2065C32.1015 29.9413 32.1015 30.6761 32.1015 31.4109C32.1015 31.9552 31.9655 32.0777 31.4484 32.0913C30.6727 32.0913 29.8971 32.0913 29.1215 32.0913C28.5908 32.0913 28.4683 31.9552 28.4547 31.4246C28.4411 30.7442 28.4411 30.7442 27.7743 30.7442C26.019 30.7306 24.2908 30.7306 22.5491 30.7306ZM22.5082 29.7644C24.3316 29.7644 26.155 29.7508 27.9785 29.7644C28.3186 29.7644 28.4547 29.6692 28.4547 29.3154C28.4411 28.4581 28.4955 28.4173 29.3256 28.4309C29.6794 28.4309 29.7883 28.3357 29.7883 27.9683C29.7746 24.3487 29.7746 20.7291 29.7883 17.1095C29.7883 16.7285 29.6658 16.6196 29.2984 16.6332C28.4955 16.6468 28.4275 16.5788 28.4411 15.7623C28.4411 15.3813 28.305 15.2861 27.9512 15.2861C24.3453 15.2997 20.7393 15.2997 17.1469 15.2861C16.7795 15.2861 16.6434 15.3813 16.657 15.7623C16.6706 16.5788 16.6026 16.6468 15.7997 16.6332C15.4323 16.6332 15.3099 16.7421 15.3099 17.1095C15.3235 20.7155 15.3235 24.3214 15.3099 27.9138C15.3099 28.3084 15.4323 28.4309 15.827 28.4173C16.589 28.4037 16.6842 28.4853 16.657 29.2201C16.6434 29.6692 16.7931 29.778 17.2149 29.7644C18.9839 29.7508 20.7529 29.7644 22.5082 29.7644ZM15.7045 14.8234C15.6909 13.8301 15.827 13.9525 14.8608 13.9525C13.8539 13.9525 13.9763 13.8301 13.9763 14.837C13.9763 15.8031 13.8539 15.6807 14.8472 15.6807C15.827 15.6807 15.6909 15.8031 15.7045 14.8234ZM30.2509 15.6807C31.2443 15.6671 31.1354 15.8031 31.1218 14.837C31.1218 13.8165 31.2579 13.9525 30.2509 13.9525C29.2712 13.9525 29.3936 13.8301 29.3936 14.8098C29.4072 15.7895 29.2848 15.6671 30.2509 15.6807ZM30.3053 29.3834C29.2848 29.397 29.4072 29.261 29.4072 30.2543C29.4072 31.234 29.2848 31.1116 30.2645 31.1116C31.2715 31.1116 31.1354 31.2341 31.1354 30.2271C31.1354 29.2746 31.2443 29.397 30.3053 29.3834ZM15.7045 30.2407C15.6909 29.261 15.827 29.3834 14.8472 29.3834C14.8336 29.3834 14.82 29.3834 14.8064 29.3834C13.8675 29.397 13.9763 29.2746 13.9763 30.2271C13.9763 31.2341 13.8539 31.1116 14.8472 31.1116C15.827 31.1116 15.6909 31.2341 15.7045 30.2407Z" fill="#171717"></path></svg>